<?xml version="1.0" encoding="utf-8"?>
<!-- Generator: Adobe Illustrator 25.2.3, SVG Export Plug-In . SVG Version: 6.00 Build 0)  -->
<svg version="1.1" id="Layer_1" xmlns="http://www.w3.org/2000/svg" xmlns:xlink="http://www.w3.org/1999/xlink" x="0px"
	y="0px" width="546px" height="178px" viewBox="0 0 546 178" style="enable-background:new 0 0 546 178;"
	xml:space="preserve">
	<style type="text/css">
		.st0 {
			fill: #FF3200;
		}

		.st1 {
			fill: url(#SVGID_1_);
		}

		.st2 {
			fill: url(#SVGID_2_);
		}

		.st3 {
			fill: #FFFFFF;
		}

		.st4 {
			fill: none;
		}
	</style>
	<g>
		<g>
			<path class="st0" d="M129.7,178H14.8C6.6,178,0,171.4,0,163.2v-115C0,21.6,21.6,0,48.2,0h81.5c26.6,0,48.2,21.6,48.2,48.2v81.6
			C177.8,156.4,156.3,178,129.7,178z" />

			<linearGradient id="SVGID_1_" gradientUnits="userSpaceOnUse" x1="4.5441" y1="4.4833" x2="98.4841" y2="98.4233"
				gradientTransform="matrix(1 0 0 -1 0 177.8898)">
				<stop offset="0" style="stop-color:#FFAC47" />
				<stop offset="0.1517" style="stop-color:#FFA644;stop-opacity:0.8483" />
				<stop offset="0.3464" style="stop-color:#FF963A;stop-opacity:0.6536" />
				<stop offset="0.5644" style="stop-color:#FF7C2B;stop-opacity:0.4356" />
				<stop offset="0.7977" style="stop-color:#FF5816;stop-opacity:0.2023" />
				<stop offset="1" style="stop-color:#FF3200;stop-opacity:0" />
			</linearGradient>
			<path class="st1" d="M77.8,178h-63C6.6,178,0,171.4,0,163.2v-63c0-16,12.9-28.9,28.9-28.9h48.9c16,0,28.9,12.9,28.9,28.9v49
			C106.7,165.1,93.8,178,77.8,178z" />

			<linearGradient id="SVGID_2_" gradientUnits="userSpaceOnUse" x1="5.0283" y1="4.9444" x2="63.2413" y2="63.1574"
				gradientTransform="matrix(1 0 0 -1 0 177.8898)">
				<stop offset="0" style="stop-color:#FFDC7E" />
				<stop offset="0.3616" style="stop-color:#FFC159;stop-opacity:0.6384" />
				<stop offset="1" style="stop-color:#FF8B10;stop-opacity:0" />
			</linearGradient>
			<path class="st2" d="M51.9,178h-37C6.6,178,0,171.4,0,163.2v-37.1c0-10.7,8.6-19.3,19.3-19.3h32.6c7.4,0,13.7,4.1,17,10.2
			c1.4,2.7,2.3,5.8,2.3,9.1v32.6C71.1,169.4,62.5,178,51.9,178z" />
		</g>
		<g>
			<path class="st3" d="M256.5,34.2c-0.3-2.7-1.6-4.8-3.8-6.3c-2.2-1.5-5-2.2-8.4-2.2c-3.6,0-6.5,0.8-8.6,2.5s-3.2,3.7-3.2,6.2
			c0,1.9,0.6,3.4,1.7,4.6c1.1,1.2,2.5,2.1,4.2,2.8c1.6,0.7,3.2,1.2,4.8,1.6l5.7,1.5c1.9,0.5,3.8,1.1,5.8,1.9c2,0.8,3.8,1.8,5.5,3.1
			s3,2.8,4.1,4.7c1,1.9,1.6,4.2,1.6,6.8c0,3.3-0.9,6.3-2.6,8.8c-1.7,2.6-4.2,4.6-7.4,6.1c-3.2,1.5-7.1,2.2-11.7,2.2
			c-6.6,0-11.8-1.5-15.7-4.6s-6-7.3-6.3-12.6h8.9c0.3,3.2,1.6,5.6,4.1,7.1s5.4,2.3,8.9,2.3c3.8,0,6.9-0.9,9.3-2.6s3.7-4,3.7-6.9
			c0-1.7-0.5-3.2-1.5-4.3c-1-1.1-2.3-2-4-2.8s-3.6-1.3-5.6-1.9l-6.9-1.9c-4.7-1.3-8.4-3.2-11.2-5.6c-2.7-2.5-4.1-5.8-4.1-9.9
			c0-3.4,0.9-6.3,2.8-8.9s4.3-4.5,7.5-5.9c3.1-1.4,6.7-2.1,10.6-2.1c4,0,7.5,0.7,10.5,2.1c3,1.4,5.4,3.3,7.2,5.8s2.7,5.2,2.8,8.4
			C265,34.2,256.5,34.2,256.5,34.2z" />
			<path class="st3" d="M278.3,26.4v-7.6h45.4v7.6h-18.3v51.1h-8.8v-51H278.3z" />
			<path class="st3" d="M340.5,77.5h-9.4l21.1-58.7h10.2l21.1,58.7h-9.4L368.8,62h-22.9L340.5,77.5z M348.5,54.5h17.8l-8.6-25h-0.5
			L348.5,54.5z" />
			<path class="st3" d="M446.8,37.9h-8.9c-0.7-3.8-2.5-6.7-5.3-8.8c-2.8-2-6.1-3-9.9-3c-3.4,0-6.4,0.9-9,2.5
			c-2.7,1.7-4.8,4.2-6.3,7.5c-1.5,3.3-2.3,7.3-2.3,12c0,4.8,0.8,8.8,2.3,12.1c1.5,3.3,3.6,5.8,6.3,7.4s5.7,2.5,9,2.5
			c3.7,0,7-1,9.8-3s4.6-4.9,5.4-8.6l8.9,0c-0.6,3.9-2,7.3-4.2,10.2c-2.2,3-5,5.3-8.4,6.9s-7.3,2.5-11.6,2.5c-5.1,0-9.6-1.2-13.6-3.6
			c-4-2.4-7.1-5.9-9.4-10.4s-3.4-9.9-3.4-16.1c0-6.3,1.1-11.7,3.4-16.2s5.4-8,9.4-10.4c4-2.4,8.5-3.6,13.5-3.6
			c4.1,0,7.9,0.8,11.3,2.4c3.4,1.6,6.2,3.8,8.5,6.8C444.7,30.1,446.2,33.7,446.8,37.9z" />
			<path class="st3" d="M466.3,77.5V18.8h8.9v28h0.7l24.6-28h11.1l-23.6,26.4l23.7,32.3H501l-19-26.2l-6.9,8v18.2L466.3,77.5
			L466.3,77.5z" />
			<path class="st3" d="M275.4,129.1c0,6.2-1.1,11.6-3.4,16.1c-2.3,4.5-5.4,8-9.4,10.4c-4,2.4-8.5,3.6-13.6,3.6
			c-5.1,0-9.6-1.2-13.6-3.6c-4-2.4-7.1-5.9-9.4-10.4s-3.4-9.9-3.4-16.1c0-6.3,1.1-11.7,3.4-16.2s5.4-8,9.4-10.4
			c4-2.4,8.5-3.6,13.6-3.6c5.1,0,9.6,1.2,13.6,3.6c4,2.4,7.1,5.9,9.4,10.4C274.3,117.4,275.4,122.8,275.4,129.1z M266.6,129.1
			c0-4.8-0.8-8.8-2.3-12.1c-1.5-3.3-3.6-5.8-6.3-7.4c-2.7-1.7-5.7-2.5-9-2.5s-6.4,0.8-9,2.5s-4.8,4.2-6.3,7.4
			c-1.5,3.3-2.3,7.3-2.3,12.1c0,4.8,0.8,8.8,2.3,12.1c1.5,3.3,3.6,5.8,6.3,7.5s5.7,2.5,9,2.5s6.4-0.8,9-2.5c2.7-1.7,4.8-4.2,6.3-7.5
			C265.9,137.9,266.6,133.8,266.6,129.1z" />
			<path class="st3" d="M339.6,99.7v58.7h-8.1l-29.8-43h-0.5v43h-8.9V99.7h8.2l29.8,43.1h0.5V99.7H339.6z" />
			<path class="st3" d="M361.4,158.4V99.7h36.4v7.6h-27.5v17.9h24.9v7.6h-24.9v25.6H361.4z" />
			<path class="st3" d="M426.3,99.7v58.7h-8.9V99.7H426.3z" />
			<path class="st3" d="M448,158.4V99.7h20.9c4.5,0,8.3,0.8,11.3,2.3s5.2,3.7,6.7,6.5s2.2,5.9,2.2,9.6c0,3.9-0.9,7.3-2.7,10.2
			c-1.8,2.9-4.5,5-8.1,6.3l13,23.8h-10.1l-11.9-22.2c-0.2,0-0.4,0-0.6,0h-12v22.2L448,158.4L448,158.4z M456.9,128.6h11.2
			c4.3,0,7.4-0.9,9.4-2.8s2.9-4.4,2.9-7.7c0-3.3-1-5.9-2.9-7.9c-1.9-1.9-5.1-2.9-9.5-2.9h-11.1V128.6z" />
			<path class="st3" d="M508.9,158.4V99.7h36.8v7.6h-27.9v17.9h26v7.6h-26v18H546v7.6H508.9z" />
		</g>
	</g>
	<rect y="0" class="st4" width="546" height="178" />
</svg>