<?xml version="1.0" encoding="utf-8"?>
<!-- Generator: Adobe Illustrator 25.2.3, SVG Export Plug-In . SVG Version: 6.00 Build 0)  -->
<svg version="1.1" id="Layer_1" xmlns="http://www.w3.org/2000/svg" xmlns:xlink="http://www.w3.org/1999/xlink" x="0px"
	y="0px" width="546px" height="178px" viewBox="0 0 546 178" style="enable-background:new 0 0 546 178;"
	xml:space="preserve">
	<style type="text/css">
		.st0 {
			fill: #FF3200;
		}

		.st1 {
			fill: url(#SVGID_1_);
		}

		.st2 {
			fill: url(#SVGID_2_);
		}

		.st3 {
			fill: #212121;
		}

		.st4 {
			fill: url(#SVGID_3_);
		}

		.st5 {
			fill: url(#SVGID_4_);
		}

		.st6 {
			fill: url(#SVGID_5_);
		}

		.st7 {
			fill: url(#SVGID_6_);
		}

		.st8 {
			fill: url(#SVGID_7_);
		}

		.st9 {
			fill: url(#SVGID_8_);
		}

		.st10 {
			fill: url(#SVGID_9_);
		}

		.st11 {
			fill: url(#SVGID_10_);
		}

		.st12 {
			fill: url(#SVGID_11_);
		}

		.st13 {
			fill: url(#SVGID_12_);
		}

		.st14 {
			fill: url(#SVGID_13_);
		}

		.st15 {
			fill: url(#SVGID_14_);
		}

		.st16 {
			clip-path: url(#SVGID_16_);
		}

		.st17 {
			fill: url(#SVGID_17_);
		}

		.st18 {
			fill: url(#SVGID_18_);
		}

		.st19 {
			fill: none;
		}
	</style>
	<g>
		<g>
			<path class="st0" d="M129.67,178H14.82C6.63,178,0,171.36,0,163.17V48.21C0,21.58,21.56,0,48.16,0h81.51
			c26.6,0,48.16,21.58,48.16,48.21v81.58C177.83,156.42,156.27,178,129.67,178z" />
			<linearGradient id="SVGID_1_" gradientUnits="userSpaceOnUse" x1="4.5437" y1="173.4061" x2="98.4831" y2="79.4668">
				<stop offset="0" style="stop-color:#FFAC47" />
				<stop offset="0.1517" style="stop-color:#FFA644;stop-opacity:0.8483" />
				<stop offset="0.3464" style="stop-color:#FF963A;stop-opacity:0.6536" />
				<stop offset="0.5644" style="stop-color:#FF7C2B;stop-opacity:0.4356" />
				<stop offset="0.7977" style="stop-color:#FF5816;stop-opacity:0.2023" />
				<stop offset="1" style="stop-color:#FF3200;stop-opacity:0" />
			</linearGradient>
			<path class="st1" d="M77.8,178H14.82C6.63,178,0,171.36,0,163.17v-63.04C0,84.15,12.94,71.2,28.9,71.2h48.9
			c15.96,0,28.9,12.95,28.9,28.93v48.95C106.7,165.05,93.76,178,77.8,178z" />
			<linearGradient id="SVGID_2_" gradientUnits="userSpaceOnUse" x1="5.0247" y1="172.9419" x2="63.2377" y2="114.7289">
				<stop offset="0" style="stop-color:#FFDC7E" />
				<stop offset="0.3616" style="stop-color:#FFC159;stop-opacity:0.6384" />
				<stop offset="1" style="stop-color:#FF8B10;stop-opacity:0" />
			</linearGradient>
			<path class="st2" d="M51.87,178H14.82C6.63,178,0,171.36,0,163.17v-37.08c0-10.65,8.63-19.28,19.27-19.28h32.6
			c7.36,0,13.75,4.13,17,10.2c1.45,2.71,2.27,5.8,2.27,9.09v32.63C71.13,169.37,62.51,178,51.87,178z" />
		</g>
		<g>
			<path class="st3" d="M256.46,34.22c-0.31-2.71-1.57-4.82-3.78-6.32c-2.21-1.5-5-2.25-8.36-2.25c-3.61,0-6.47,0.82-8.59,2.46
			c-2.12,1.64-3.18,3.72-3.18,6.22c0,1.87,0.57,3.4,1.7,4.57c1.14,1.17,2.53,2.1,4.18,2.77c1.65,0.67,3.24,1.2,4.77,1.6l5.73,1.49
			c1.87,0.46,3.79,1.08,5.75,1.88c1.97,0.79,3.79,1.82,5.47,3.09c1.68,1.27,3.04,2.85,4.08,4.74c1.04,1.89,1.56,4.15,1.56,6.79
			c0,3.31-0.85,6.26-2.56,8.85c-1.71,2.6-4.18,4.64-7.4,6.12c-3.23,1.48-7.14,2.22-11.74,2.22c-6.57,0-11.79-1.54-15.67-4.61
			c-3.88-3.07-5.97-7.27-6.26-12.58h8.87c0.27,3.19,1.65,5.56,4.15,7.11c2.5,1.55,5.45,2.32,8.85,2.32c3.76,0,6.87-0.87,9.32-2.61
			c2.45-1.74,3.68-4.04,3.68-6.91c0-1.74-0.49-3.17-1.47-4.28c-0.98-1.12-2.31-2.03-3.98-2.75c-1.67-0.72-3.55-1.35-5.65-1.91
			L239,50.35c-4.71-1.28-8.44-3.16-11.16-5.64c-2.73-2.48-4.09-5.77-4.09-9.86c0-3.38,0.92-6.33,2.75-8.85
			c1.83-2.52,4.32-4.48,7.46-5.89c3.14-1.4,6.67-2.11,10.58-2.11c3.97,0,7.48,0.7,10.52,2.09c3.04,1.39,5.44,3.31,7.2,5.76
			c1.76,2.45,2.67,5.23,2.75,8.37H256.46z" />
			<path class="st3" d="M278.34,26.43V18.8h45.37v7.62h-18.29v51.06h-8.82V26.43H278.34z" />
			<path class="st3" d="M340.54,77.49h-9.39l21.1-58.68h10.22l21.1,58.68h-9.39l-5.35-15.53h-22.9L340.54,77.49z M348.5,54.51h17.75
			l-8.65-25.04h-0.46L348.5,54.51z" />
			<path class="st3" d="M446.83,37.89h-8.93c-0.73-3.8-2.5-6.72-5.34-8.75c-2.83-2.03-6.12-3.05-9.86-3.05
			c-3.36,0-6.37,0.85-9.05,2.55c-2.67,1.7-4.78,4.19-6.31,7.46c-1.54,3.28-2.3,7.29-2.3,12.05c0,4.78,0.77,8.81,2.32,12.09
			c1.55,3.29,3.65,5.77,6.31,7.45s5.66,2.52,9,2.52c3.7,0,6.98-1,9.82-3.01c2.84-2.01,4.65-4.88,5.41-8.62l8.93,0.03
			c-0.63,3.86-2.04,7.27-4.24,10.23c-2.2,2.96-5,5.28-8.42,6.95c-3.42,1.67-7.27,2.51-11.57,2.51c-5.08,0-9.6-1.21-13.57-3.62
			c-3.97-2.42-7.09-5.88-9.37-10.39c-2.28-4.51-3.42-9.89-3.42-16.13c0-6.27,1.15-11.65,3.44-16.15c2.29-4.5,5.42-7.96,9.39-10.37
			c3.97-2.42,8.48-3.62,13.54-3.62c4.14,0,7.92,0.78,11.32,2.35c3.41,1.57,6.24,3.84,8.5,6.81
			C444.69,30.13,446.16,33.7,446.83,37.89z" />
			<path class="st3" d="M466.28,77.49V18.8h8.85v28.02h0.72l24.59-28.02h11.14l-23.65,26.42l23.73,32.26h-10.65l-18.95-26.22
			l-6.93,7.97v18.25H466.28z" />
			<path class="st3" d="M275.41,129.08c0,6.25-1.15,11.62-3.44,16.13c-2.29,4.51-5.42,7.97-9.4,10.39c-3.98,2.42-8.5,3.62-13.56,3.62
			c-5.08,0-9.6-1.21-13.58-3.62c-3.98-2.42-7.11-5.88-9.4-10.39c-2.29-4.51-3.43-9.89-3.43-16.13c0-6.27,1.14-11.65,3.43-16.15
			c2.29-4.5,5.42-7.96,9.4-10.37c3.98-2.42,8.51-3.62,13.58-3.62c5.06,0,9.58,1.21,13.56,3.62c3.98,2.42,7.11,5.87,9.4,10.37
			C274.27,117.43,275.41,122.81,275.41,129.08z M266.65,129.08c0-4.78-0.77-8.8-2.3-12.08c-1.54-3.28-3.64-5.76-6.3-7.45
			c-2.66-1.69-5.67-2.54-9.03-2.54c-3.36,0-6.37,0.85-9.03,2.54c-2.66,1.69-4.76,4.17-6.3,7.45c-1.54,3.28-2.3,7.3-2.3,12.08
			c0,4.76,0.77,8.78,2.3,12.06c1.54,3.29,3.64,5.77,6.3,7.46c2.66,1.69,5.67,2.54,9.03,2.54c3.36,0,6.37-0.84,9.03-2.54
			c2.66-1.69,4.76-4.18,6.3-7.46C265.88,137.86,266.65,133.84,266.65,129.08z" />
			<path class="st3"
				d="M339.6,99.74v58.68h-8.13l-29.8-43.04h-0.54v43.04h-8.85V99.74h8.19l29.83,43.1h0.54v-43.1H339.6z" />
			<path class="st3" d="M361.35,158.42V99.74h36.36v7.62h-27.51v17.88h24.9v7.59h-24.9v25.59H361.35z" />
			<path class="st3" d="M426.3,99.74v58.68h-8.85V99.74H426.3z" />
			<path class="st3" d="M448.05,158.42V99.74h20.9c4.54,0,8.31,0.78,11.31,2.35c3,1.57,5.24,3.73,6.74,6.49s2.25,5.95,2.25,9.56
			c0,3.94-0.89,7.34-2.68,10.22c-1.78,2.88-4.48,4.98-8.09,6.32l13,23.75H481.4l-11.91-22.21c-0.19,0-0.38,0-0.57,0h-12.02v22.21
			H448.05z M456.89,128.59h11.22c4.31,0,7.43-0.92,9.35-2.75c1.92-1.83,2.88-4.4,2.88-7.71c0-3.32-0.96-5.95-2.89-7.89
			c-1.93-1.94-5.08-2.91-9.45-2.91h-11.11V128.59z" />
			<path class="st3" d="M508.9,158.42V99.74h36.76v7.62h-27.91v17.88h25.99v7.59h-25.99v17.97H546v7.62H508.9z" />
		</g>
	</g>
	<rect class="st19" width="546" height="178" />
</svg>